<svg id="Layer_1" xmlns="http://www.w3.org/2000/svg" viewBox="0 0 296.7 153"><style>.st0{enable-background:new}.st1{fill:#222c2d}.st2{fill:#40585b}.st3{opacity:.4;fill:#0ee068;enable-background:new}.st4{fill:#ff1af4}.st5{opacity:.4;fill:#97ea07;enable-background:new}.st6{fill:#0ee068}.st7{fill:#97ea07}.st8{fill:#e2d70c}.st9{fill:#06cced}.st10{fill:#0f6b7a}.st11,.st12{opacity:.4;fill:#06cced;enable-background:new}.st12{fill:#e2d70c}.st13{fill:#25b3c1}.st14{fill:#0a1763}.st15,.st16{opacity:.4;fill:#25b3c1;enable-background:new}.st16{fill:#0f6b7a}.st17{fill:none;stroke:#fff;stroke-width:2;stroke-miterlimit:10}</style><g class="st0"><path class="st1" d="M134.7 52.4h7.9l10.9 30.5h.2l11-30.5h7.6L156.5 92h-6.1l-15.7-39.6zM199.1 78.9v.9c0 .3 0 .6-.1.9h-20.4c.1 1 .3 1.9.8 2.7.4.8 1 1.5 1.7 2.1s1.5 1 2.4 1.4c.9.3 1.8.5 2.8.5 1.7 0 3.1-.3 4.3-.9s2.1-1.5 2.9-2.5l4.5 3.6c-2.6 3.6-6.5 5.4-11.5 5.4-2.1 0-4-.3-5.8-1-1.8-.7-3.3-1.6-4.6-2.8-1.3-1.2-2.3-2.7-3-4.4-.7-1.7-1.1-3.7-1.1-5.9s.4-4.1 1.1-5.9c.7-1.8 1.7-3.3 3-4.5 1.3-1.2 2.8-2.2 4.5-2.9s3.6-1 5.6-1c1.9 0 3.6.3 5.2.9 1.6.6 3 1.5 4.1 2.7 1.2 1.2 2.1 2.7 2.7 4.5.6 1.6.9 3.7.9 6.2zm-6.7-3.1c0-.9-.1-1.7-.4-2.5-.2-.8-.6-1.5-1.1-2.1-.5-.6-1.2-1.1-2-1.4-.8-.4-1.7-.5-2.8-.5-2 0-3.7.6-5.1 1.8-1.4 1.2-2.2 2.8-2.3 4.7h13.7zM223.9 72.5c-.5-.7-1.3-1.4-2.4-1.9-1-.5-2.1-.8-3.2-.8-1.2 0-2.3.3-3.2.8-.9.5-1.7 1.2-2.3 2s-1.1 1.7-1.4 2.8c-.3 1-.4 2.1-.4 3.1s.2 2.1.5 3.1.8 2 1.4 2.8c.6.8 1.4 1.5 2.4 2s2.1.8 3.3.8c1 0 2.1-.2 3.1-.6s1.9-1 2.5-1.8l4.2 4.3c-1.1 1.2-2.5 2.1-4.3 2.8-1.7.7-3.6 1-5.6 1-2 0-3.9-.3-5.6-1-1.8-.6-3.3-1.6-4.6-2.8-1.3-1.2-2.4-2.7-3.1-4.5-.8-1.8-1.1-3.8-1.1-6s.4-4.1 1.1-5.9c.8-1.8 1.8-3.2 3.1-4.5 1.3-1.2 2.8-2.2 4.6-2.9 1.7-.7 3.6-1 5.6-1 2 0 3.9.4 5.7 1.1 1.8.7 3.3 1.8 4.4 3.1l-4.7 4zM229 70.5v-5.4h4.7v-7.8h6.6v7.8h6.7v5.4h-6.7V83c0 1.2.2 2.2.6 3s1.4 1.2 2.9 1.2c.4 0 .9 0 1.5-.1.5-.1 1-.2 1.4-.4l.2 5.3c-.6.2-1.3.4-2.1.5-.8.1-1.6.2-2.3.2-1.8 0-3.2-.3-4.4-.8-1.1-.5-2-1.2-2.7-2.1-.7-.9-1.1-1.9-1.3-3-.2-1.1-.4-2.4-.4-3.7V70.5H229zM251.9 65.1h6.4v4.5h.1c.7-1.6 1.8-2.8 3.1-3.8s2.9-1.5 4.7-1.5h.8c.3 0 .6.1.8.1v6.2c-.4-.1-.8-.2-1.1-.2-.3 0-.6-.1-.9-.1-1.5 0-2.8.3-3.7.8s-1.7 1.2-2.2 2c-.5.8-.9 1.6-1.1 2.4-.2.8-.3 1.5-.3 2V92h-6.7V65.1zM268.4 88c0-1.2.4-2.2 1.3-3.1.9-.9 1.9-1.3 3.2-1.3 1.2 0 2.2.4 3.1 1.2.9.8 1.3 1.8 1.3 3s-.4 2.2-1.3 3.1c-.9.9-1.9 1.3-3.2 1.3-.6 0-1.2-.1-1.7-.3-.5-.2-1-.5-1.4-.9-.4-.4-.7-.8-1-1.3-.2-.5-.3-1.1-.3-1.7z"/></g><g class="st0"><path class="st2" d="M149.8 131.6c-1.4.5-2.8.8-4.3.8-1.6 0-3.1-.3-4.5-.9-1.4-.6-2.5-1.4-3.5-2.4s-1.8-2.2-2.3-3.6-.8-3-.8-4.6.3-3.2.8-4.6c.5-1.4 1.3-2.6 2.3-3.6s2.2-1.8 3.5-2.4c1.4-.6 2.9-.9 4.5-.9 1.4 0 2.7.2 4 .7 1.3.5 2.4 1.2 3.3 2.1l-.4.5c-.4-.5-.9-.8-1.5-1.2s-1.1-.6-1.7-.8c-.6-.2-1.2-.4-1.8-.5-.6-.1-1.2-.2-1.8-.2-1.6 0-3 .3-4.3.8s-2.4 1.3-3.3 2.3c-.9 1-1.6 2.1-2.1 3.5s-.8 2.7-.8 4.3.2 2.9.7 4.3c.5 1.3 1.2 2.5 2.1 3.5.9 1 2 1.8 3.3 2.3 1.3.6 2.7.8 4.3.8 1.4 0 2.7-.3 4-.8s2.4-1.3 3.3-2.4l.5.5c-1 1.1-2.1 1.9-3.5 2.5zM170.8 124.6c0 1.1-.2 2.1-.5 3-.4.9-.9 1.7-1.5 2.4-.7.7-1.4 1.2-2.4 1.6-.9.4-1.9.6-3 .6s-2.1-.2-3-.6c-.9-.4-1.7-.9-2.3-1.6-.7-.7-1.2-1.5-1.5-2.4-.4-.9-.5-1.9-.5-3s.2-2.1.5-3c.4-.9.9-1.7 1.5-2.4.7-.7 1.4-1.2 2.3-1.5.9-.4 1.9-.6 3-.6s2.1.2 3 .6c.9.4 1.7.9 2.4 1.5.7.7 1.2 1.4 1.5 2.4.3.9.5 1.9.5 3zm-.7 0c0-.9-.2-1.8-.5-2.7s-.8-1.6-1.3-2.2c-.6-.6-1.3-1.1-2.1-1.5-.8-.4-1.8-.5-2.8-.5s-2 .2-2.8.5-1.5.9-2.1 1.5c-.6.6-1 1.4-1.3 2.2-.3.8-.5 1.7-.5 2.7 0 1 .2 1.9.5 2.7.3.8.8 1.6 1.3 2.2.6.6 1.3 1.1 2.1 1.5.8.4 1.8.6 2.8.6s2-.2 2.8-.6c.8-.4 1.5-.9 2.1-1.5.6-.6 1-1.4 1.3-2.2.3-.8.5-1.7.5-2.7zM177.5 119.6c.4-.5.8-.9 1.3-1.3s1-.6 1.6-.8c.6-.2 1.2-.3 1.8-.3 1 0 1.8.2 2.5.5s1.2.8 1.6 1.4c.4.6.7 1.2.8 1.9.2.7.2 1.4.2 2.2v8.6h-.7v-8.5c0-.6-.1-1.2-.2-1.8-.1-.7-.4-1.3-.7-1.8-.3-.5-.8-1-1.4-1.3-.6-.4-1.3-.5-2.2-.5-.8 0-1.5.2-2.2.5-.7.3-1.3.8-1.8 1.4-.5.6-.9 1.3-1.2 2.2-.3.9-.4 1.8-.4 2.9v7.1h-.7v-10.6-.8-1-1c0-.3 0-.6-.1-.8h.7V121.5h.1c.3-.8.6-1.4 1-1.9zM201.4 128.1c0 .6-.1 1.2-.4 1.7-.2.5-.6.9-1 1.3-.4.3-.9.6-1.5.8-.6.2-1.2.3-1.8.3-1 0-2-.2-2.8-.6-.9-.4-1.6-1-2.1-1.8l.6-.4c1 1.4 2.5 2.2 4.4 2.2.5 0 .9-.1 1.4-.2s.9-.4 1.3-.6c.4-.3.7-.6.9-1.1.2-.4.4-.9.4-1.5 0-.7-.1-1.2-.4-1.6-.3-.4-.7-.7-1.1-1l-1.5-.6c-.5-.2-1.1-.3-1.5-.4-.5-.1-1-.3-1.4-.5-.5-.2-.8-.4-1.2-.7-.3-.3-.6-.6-.8-1-.2-.4-.3-.9-.3-1.5s.1-1.1.4-1.6c.2-.5.6-.8 1-1.1.4-.3.9-.5 1.4-.7.5-.2 1.1-.2 1.6-.2 1.9 0 3.4.7 4.3 2.1l-.6.3c-.5-.6-1-1.1-1.6-1.4-.6-.3-1.3-.4-2.2-.4-.4 0-.8.1-1.2.2-.4.1-.8.3-1.2.5s-.7.5-.9.9c-.2.4-.4.9-.4 1.4 0 .6.1 1.1.3 1.5.2.4.5.7.8.9.3.2.8.4 1.3.6.5.2 1 .3 1.6.4.6.1 1.1.3 1.6.5s1 .4 1.4.7c.4.3.7.6 1 1.1.1.3.2.8.2 1.5zM215.8 129.8c-.4.5-.8 1-1.3 1.3-.5.3-1 .6-1.6.8-.6.2-1.2.3-1.8.3-1 0-1.8-.2-2.5-.5s-1.2-.8-1.6-1.4c-.4-.6-.7-1.2-.8-1.9-.2-.7-.2-1.4-.2-2.2v-8.6h.7v8.5c0 .6.1 1.2.2 1.9.1.6.4 1.2.7 1.8.3.5.8 1 1.4 1.3.6.4 1.3.5 2.2.5.8 0 1.5-.2 2.2-.5s1.3-.8 1.8-1.4c.5-.6.9-1.3 1.2-2.2.3-.9.4-1.8.4-2.9v-7.1h.7v13.4c0 .3 0 .6.1.8h-.7v-.8-1-1-.9h-.1c-.3.7-.6 1.3-1 1.8zM223.8 131.8v-23.3h.7v23.3h-.7zM235.4 132c-.3.1-.6.1-1 .1-1.1 0-1.9-.3-2.4-.9s-.7-1.4-.7-2.4v-10.7h-3.1v-.6h3v-4.2h.7v4.2h4.2v.6H232v10.7c0 1 .2 1.7.7 2.1.5.4 1.1.6 1.9.6.6 0 1.1-.1 1.6-.3l.1.5c-.3.2-.6.3-.9.3zM240.5 112.3c-.2 0-.3-.1-.5-.2-.1-.1-.2-.3-.2-.6 0-.2.1-.4.2-.6.1-.1.3-.2.5-.2s.3.1.5.2c.1.1.2.3.2.6 0 .2-.1.4-.2.6s-.3.2-.5.2zm-.3 19.5v-14.2h.7v14.2h-.7zM248.8 119.6c.4-.5.8-.9 1.3-1.3s1-.6 1.6-.8c.6-.2 1.2-.3 1.8-.3 1 0 1.8.2 2.5.5s1.2.8 1.6 1.4c.4.6.7 1.2.8 1.9s.2 1.4.2 2.2v8.6h-.6v-8.5c0-.6-.1-1.2-.2-1.8-.1-.7-.4-1.3-.7-1.8-.3-.5-.8-1-1.4-1.3-.6-.4-1.3-.5-2.2-.5-.8 0-1.5.2-2.2.5s-1.3.8-1.8 1.4-.9 1.3-1.2 2.2c-.3.9-.4 1.8-.4 2.9v7.1h-.7v-10.6-.8-1-1c0-.3 0-.6-.1-.8h.7V121.5h.1c.2-.8.5-1.4.9-1.9zM277.1 127.9c-.4.7-.7 1.3-1.2 1.8s-1 1-1.5 1.3c-.6.4-1.2.6-1.8.8-.6.2-1.3.3-2 .3-1 0-2-.2-2.8-.6-.9-.4-1.6-.9-2.2-1.6-.6-.7-1.1-1.5-1.5-2.4-.3-.9-.5-1.9-.5-3s.2-2.1.5-3c.3-.9.8-1.7 1.5-2.4.6-.7 1.4-1.2 2.2-1.6.9-.4 1.8-.6 2.8-.6 1.4 0 2.6.4 3.7 1.1 1.1.7 2 1.8 2.6 3.2h.1v-3.8h.7V131c0 1.1-.1 2.2-.4 3.2s-.6 1.9-1.2 2.7c-.5.8-1.3 1.4-2.2 1.9-.9.5-2 .7-3.3.7-1.3 0-2.5-.2-3.6-.7-1-.5-1.9-1.1-2.7-2l.5-.5c.8.9 1.7 1.5 2.7 1.9 1 .4 2 .6 3.1.6 1.2 0 2.3-.2 3.1-.7.8-.5 1.5-1 1.9-1.8.5-.7.8-1.6 1-2.5.2-1 .3-1.9.3-3v-2.9zm-12.9-3.2c0 .9.1 1.8.4 2.6.3.8.7 1.6 1.3 2.2.6.6 1.2 1.1 2 1.5.8.4 1.7.6 2.7.6.9 0 1.8-.2 2.6-.6.8-.4 1.5-.9 2-1.5.6-.6 1-1.4 1.4-2.2.3-.8.5-1.7.5-2.7s-.2-1.8-.5-2.7c-.3-.8-.8-1.6-1.4-2.2-.6-.6-1.3-1.1-2-1.5-.8-.4-1.7-.6-2.6-.6-1 0-1.9.2-2.7.6-.8.4-1.5.9-2 1.5-.6.6-1 1.4-1.3 2.2-.3 1-.4 1.9-.4 2.8z"/></g><path class="st3" d="M34.2 52.2l24-40h-48z"/><path class="st4" d="M58.2 12.2l12 20h-24z"/><path class="st5" d="M46.2 32.2l12 20h-24z"/><path class="st6" d="M58.2 52.2l12-20h-24z"/><path class="st7" d="M70.2 32.2l12 20h-24z"/><path class="st8" d="M70.2 72.2l12-20h-24z"/><path class="st9" d="M82.2 52.2l12 20h-24z"/><path class="st10" d="M82.2 92.2l12-20h-24z"/><path class="st11" d="M82.2 52.2l-24 40h48z"/><path class="st12" d="M58.2 92.2l24-40h-48z"/><path class="st13" d="M94.2 32.2l12 20h-24z"/><path class="st14" d="M94.2 72.2l12-20h-24z"/><path class="st15" d="M106.2 92.2l24-40h-48z"/><path class="st16" d="M82.2 132.2l24-40h-48z"/><path class="st17" d="M94.9 114.2l-60.7-104"/></svg>